/* XPM */
static const char *error[] = {
/* columns rows colors chars-per-pixel */
"17 17 2 1 ",
"  c gray100",
". c black",
/* pixels */
"    ........     ",
"   .. . . . .    ",
"  .. . . . . .   ",
" .. .       . .  ",
".. . .       . . ",
". . . .       . .",
"..   . .      .. ",
". .   . .     . .",
"..     . .    .. ",
". .     . .   . .",
"..       . .  .. ",
". .       . ... .",
" . .       . . . ",
"  . .      .. .  ",
"   . ....... .   ",
"    . . . . .    ",
"     . . . .     "
};
