/* XPM */
static const char *info[] = {
/* columns rows colors chars-per-pixel */
"8 21 2 1 ",
"  c gray100",
". c black",
/* pixels */
"  ....  ",
" . . .  ",
" .. .   ",
" . . .  ",
"  . .   ",
"        ",
"        ",
"......  ",
". . .   ",
" ... .  ",
"  . .   ",
"  .. .  ",
"  . .   ",
"  .. .  ",
"  . .   ",
"  .. .  ",
"  . .   ",
"  .. .  ",
"... . ..",
".. . . .",
". . . . "
};
