/* XPM */
static const char *questhead[] = {
/* columns rows colors chars-per-pixel */
"20 22 2 1 ",
"  c gray100",
". c black",
/* pixels */
"   ..........       ",
"  .. . . . . .      ",
" .. . . . . . .     ",
".. . ....... . .    ",
". . ......... . .   ",
".. ........... .    ",
". . ... . ... . .   ",
".. ..... ..... . .  ",
". . ... . ... . . . ",
".. . . . ..... . . .",
". . . . ..... . ... ",
".. . . ..... . .    ",
" .. . ..... . . .   ",
"  .. . ... . . .    ",
"   .. ..... . .     ",
"    .. . . . . .    ",
"    . . . . . .     ",
"    .. ... .        ",
"    . ..... .       ",
"    .. ... .        ",
"   .. . . . .       ",
"   . . . . . .      "
};
