/* XPM */
static const char *warning[] = {
/* columns rows colors chars-per-pixel */
"6 19 2 1 ",
"  c gray100",
". c black",
/* pixels */
"  ..  ",
" .. . ",
".. . .",
". . . ",
".. . .",
". . . ",
".. . .",
" .. . ",
" . .  ",
" .. . ",
" . .  ",
" .. . ",
" . .  ",
"      ",
"      ",
" .... ",
" . .  ",
" .. . ",
" . .  "
};
